<mxfile host="65bd71144e">
    <diagram id="voRThPeKLmp_nt6nkguu" name="Page-1">
        <mxGraphModel dx="915" dy="552" grid="1" gridSize="10" guides="1" tooltips="1" connect="1" arrows="1" fold="1" page="1" pageScale="1" pageWidth="827" pageHeight="1169" math="0" shadow="0">
            <root>
                <mxCell id="0"/>
                <mxCell id="1" parent="0"/>
                <mxCell id="82" style="edgeStyle=orthogonalEdgeStyle;shape=connector;rounded=0;html=1;exitX=0;exitY=0.5;exitDx=0;exitDy=0;entryX=0;entryY=0.5;entryDx=0;entryDy=0;labelBackgroundColor=default;strokeColor=default;fontFamily=Helvetica;fontSize=11;fontColor=default;endArrow=none;endFill=0;" parent="1" source="2" target="79" edge="1">
                    <mxGeometry relative="1" as="geometry">
                        <Array as="points">
                            <mxPoint x="260" y="481"/>
                            <mxPoint x="260" y="481"/>
                        </Array>
                    </mxGeometry>
                </mxCell>
                <mxCell id="2" value="" style="pointerEvents=1;verticalLabelPosition=bottom;shadow=0;dashed=0;align=center;html=1;verticalAlign=top;shape=mxgraph.electrical.miscellaneous.batteryStack;rotation=-90;" parent="1" vertex="1">
                    <mxGeometry x="190" y="401" width="100" height="60" as="geometry"/>
                </mxCell>
                <mxCell id="4" value="" style="verticalLabelPosition=bottom;shadow=0;dashed=0;align=center;html=1;verticalAlign=top;shape=mxgraph.electrical.opto_electronics.led_2;pointerEvents=1;rotation=-180;" parent="1" vertex="1">
                    <mxGeometry x="390" y="451" width="100" height="70" as="geometry"/>
                </mxCell>
                <mxCell id="10" value="+ 5 V" style="text;strokeColor=none;align=center;fillColor=none;html=1;verticalAlign=middle;whiteSpace=wrap;rounded=0;fontFamily=Helvetica;fontSize=11;fontColor=default;" parent="1" vertex="1">
                    <mxGeometry x="140" y="416" width="60" height="30" as="geometry"/>
                </mxCell>
                <mxCell id="76" style="edgeStyle=orthogonalEdgeStyle;shape=connector;rounded=0;html=1;exitX=1;exitY=0.88;exitDx=0;exitDy=0;entryX=1;entryY=0.5;entryDx=0;entryDy=0;labelBackgroundColor=default;strokeColor=default;fontFamily=Helvetica;fontSize=11;fontColor=default;endArrow=none;endFill=0;" parent="1" source="13" target="68" edge="1">
                    <mxGeometry relative="1" as="geometry"/>
                </mxCell>
                <mxCell id="93" style="edgeStyle=none;html=1;exitX=1;exitY=0.12;exitDx=0;exitDy=0;" parent="1" source="13" edge="1">
                    <mxGeometry relative="1" as="geometry">
                        <mxPoint x="285.05555555555554" y="369.8333333333333" as="targetPoint"/>
                    </mxGeometry>
                </mxCell>
                <mxCell id="99" style="edgeStyle=orthogonalEdgeStyle;shape=connector;rounded=0;html=1;exitX=0;exitY=0.5;exitDx=0;exitDy=0;entryX=0;entryY=0.75;entryDx=0;entryDy=0;entryPerimeter=0;labelBackgroundColor=default;strokeColor=default;fontFamily=Helvetica;fontSize=11;fontColor=default;endArrow=none;endFill=0;" parent="1" source="13" target="97" edge="1">
                    <mxGeometry relative="1" as="geometry"/>
                </mxCell>
                <mxCell id="13" value="" style="shape=mxgraph.electrical.electro-mechanical.twoWaySwitch;aspect=fixed;elSwitchState=2;rotation=-180;flipV=0;" parent="1" vertex="1">
                    <mxGeometry x="285" y="347" width="75" height="26" as="geometry"/>
                </mxCell>
                <mxCell id="21" value="B" style="text;strokeColor=none;align=center;fillColor=none;html=1;verticalAlign=middle;whiteSpace=wrap;rounded=0;fontFamily=Helvetica;fontSize=11;fontColor=default;" parent="1" vertex="1">
                    <mxGeometry x="300" y="386" width="60" height="30" as="geometry"/>
                </mxCell>
                <mxCell id="22" value="Sum" style="text;strokeColor=none;align=center;fillColor=none;html=1;verticalAlign=middle;whiteSpace=wrap;rounded=0;fontFamily=Helvetica;fontSize=11;fontColor=default;" parent="1" vertex="1">
                    <mxGeometry x="410" y="510" width="60" height="30" as="geometry"/>
                </mxCell>
                <mxCell id="30" value="220 Î©" style="text;strokeColor=none;align=center;fillColor=none;html=1;verticalAlign=middle;whiteSpace=wrap;rounded=0;fontFamily=Helvetica;fontSize=11;fontColor=default;" parent="1" vertex="1">
                    <mxGeometry x="310" y="491" width="60" height="30" as="geometry"/>
                </mxCell>
                <mxCell id="36" value="" style="shape=mxgraph.electrical.electro-mechanical.twoWaySwitch;aspect=fixed;elSwitchState=2;rotation=-180;" parent="1" vertex="1">
                    <mxGeometry x="285" y="247" width="75" height="26" as="geometry"/>
                </mxCell>
                <mxCell id="81" style="edgeStyle=orthogonalEdgeStyle;shape=connector;rounded=0;html=1;exitX=1;exitY=0.5;exitDx=0;exitDy=0;exitPerimeter=0;entryX=1;entryY=0.5;entryDx=0;entryDy=0;labelBackgroundColor=default;strokeColor=default;fontFamily=Helvetica;fontSize=11;fontColor=default;endArrow=none;endFill=0;" parent="1" source="48" target="79" edge="1">
                    <mxGeometry relative="1" as="geometry"/>
                </mxCell>
                <mxCell id="48" value="" style="pointerEvents=1;verticalLabelPosition=bottom;shadow=0;dashed=0;align=center;html=1;verticalAlign=top;shape=mxgraph.electrical.resistors.resistor_2;rotation=-180;" parent="1" vertex="1">
                    <mxGeometry x="290" y="471" width="100" height="20" as="geometry"/>
                </mxCell>
                <mxCell id="54" value="A" style="text;strokeColor=none;align=center;fillColor=none;html=1;verticalAlign=middle;whiteSpace=wrap;rounded=0;fontFamily=Helvetica;fontSize=11;fontColor=default;" parent="1" vertex="1">
                    <mxGeometry x="285" y="210" width="60" height="30" as="geometry"/>
                </mxCell>
                <mxCell id="77" style="edgeStyle=orthogonalEdgeStyle;shape=connector;rounded=0;html=1;exitX=0.5;exitY=1;exitDx=0;exitDy=0;entryX=1;entryY=0.5;entryDx=0;entryDy=0;labelBackgroundColor=default;strokeColor=default;fontFamily=Helvetica;fontSize=11;fontColor=default;endArrow=none;endFill=0;" parent="1" source="68" target="2" edge="1">
                    <mxGeometry relative="1" as="geometry"/>
                </mxCell>
                <mxCell id="78" style="edgeStyle=orthogonalEdgeStyle;shape=connector;rounded=0;html=1;exitX=0.5;exitY=0;exitDx=0;exitDy=0;entryX=1;entryY=0.88;entryDx=0;entryDy=0;labelBackgroundColor=default;strokeColor=default;fontFamily=Helvetica;fontSize=11;fontColor=default;endArrow=none;endFill=0;" parent="1" source="68" target="36" edge="1">
                    <mxGeometry relative="1" as="geometry"/>
                </mxCell>
                <mxCell id="68" value="" style="ellipse;whiteSpace=wrap;html=1;aspect=fixed;fontFamily=Helvetica;fontSize=11;fontColor=default;strokeColor=#000000;fillColor=#000000;" parent="1" vertex="1">
                    <mxGeometry x="235" y="345" width="10" height="10" as="geometry"/>
                </mxCell>
                <mxCell id="79" value="" style="ellipse;whiteSpace=wrap;html=1;aspect=fixed;fontFamily=Helvetica;fontSize=11;fontColor=default;strokeColor=#000000;fillColor=#000000;" parent="1" vertex="1">
                    <mxGeometry x="275" y="476" width="10" height="10" as="geometry"/>
                </mxCell>
                <mxCell id="95" value="" style="edgeStyle=orthogonalEdgeStyle;shape=connector;rounded=0;html=1;exitX=1;exitY=0.12;exitDx=0;exitDy=0;labelBackgroundColor=default;strokeColor=default;fontFamily=Helvetica;fontSize=11;fontColor=default;endArrow=none;endFill=0;" parent="1" source="36" target="94" edge="1">
                    <mxGeometry relative="1" as="geometry">
                        <mxPoint x="280" y="480" as="targetPoint"/>
                        <Array as="points">
                            <mxPoint x="280" y="270"/>
                        </Array>
                        <mxPoint x="285" y="269.87999999999994" as="sourcePoint"/>
                    </mxGeometry>
                </mxCell>
                <mxCell id="96" style="edgeStyle=none;html=1;exitX=0.5;exitY=1;exitDx=0;exitDy=0;endArrow=none;endFill=0;" parent="1" source="94" target="79" edge="1">
                    <mxGeometry relative="1" as="geometry"/>
                </mxCell>
                <mxCell id="94" value="" style="ellipse;whiteSpace=wrap;html=1;aspect=fixed;fontFamily=Helvetica;fontSize=11;fontColor=default;strokeColor=#000000;fillColor=#000000;" parent="1" vertex="1">
                    <mxGeometry x="275" y="365" width="10" height="10" as="geometry"/>
                </mxCell>
                <mxCell id="97" value="" style="verticalLabelPosition=bottom;shadow=0;dashed=0;align=center;html=1;verticalAlign=top;shape=mxgraph.electrical.logic_gates.logic_gate;operation=xor;" parent="1" vertex="1">
                    <mxGeometry x="390" y="273" width="100" height="60" as="geometry"/>
                </mxCell>
                <mxCell id="146" style="edgeStyle=orthogonalEdgeStyle;shape=connector;rounded=0;html=1;exitX=1;exitY=0.5;exitDx=0;exitDy=0;exitPerimeter=0;entryX=0;entryY=0.75;entryDx=0;entryDy=0;entryPerimeter=0;labelBackgroundColor=default;strokeColor=default;fontFamily=Helvetica;fontSize=11;fontColor=default;endArrow=none;endFill=0;" parent="1" source="101" target="145" edge="1">
                    <mxGeometry relative="1" as="geometry"/>
                </mxCell>
                <mxCell id="101" value="" style="verticalLabelPosition=bottom;shadow=0;dashed=0;align=center;html=1;verticalAlign=top;shape=mxgraph.electrical.logic_gates.logic_gate;operation=and;" parent="1" vertex="1">
                    <mxGeometry x="390" y="365" width="100" height="60" as="geometry"/>
                </mxCell>
                <mxCell id="115" value="" style="edgeStyle=orthogonalEdgeStyle;shape=connector;rounded=0;html=1;exitX=0;exitY=0.5;exitDx=0;exitDy=0;entryX=0;entryY=0.75;entryDx=0;entryDy=0;entryPerimeter=0;labelBackgroundColor=default;strokeColor=default;fontFamily=Helvetica;fontSize=11;fontColor=default;endArrow=none;endFill=0;" parent="1" source="13" target="114" edge="1">
                    <mxGeometry relative="1" as="geometry">
                        <mxPoint x="360" y="360" as="sourcePoint"/>
                        <mxPoint x="390" y="410" as="targetPoint"/>
                    </mxGeometry>
                </mxCell>
                <mxCell id="120" style="edgeStyle=orthogonalEdgeStyle;shape=connector;rounded=0;html=1;exitX=0.5;exitY=1;exitDx=0;exitDy=0;entryX=0;entryY=0.75;entryDx=0;entryDy=0;entryPerimeter=0;labelBackgroundColor=default;strokeColor=default;fontFamily=Helvetica;fontSize=11;fontColor=default;endArrow=none;endFill=0;" parent="1" source="114" target="101" edge="1">
                    <mxGeometry relative="1" as="geometry"/>
                </mxCell>
                <mxCell id="114" value="" style="ellipse;whiteSpace=wrap;html=1;aspect=fixed;fontFamily=Helvetica;fontSize=11;fontColor=default;strokeColor=#000000;fillColor=#000000;" parent="1" vertex="1">
                    <mxGeometry x="370" y="355" width="10" height="10" as="geometry"/>
                </mxCell>
                <mxCell id="117" value="" style="edgeStyle=orthogonalEdgeStyle;shape=connector;rounded=0;html=1;exitX=0;exitY=0.5;exitDx=0;exitDy=0;entryX=0;entryY=0.25;entryDx=0;entryDy=0;entryPerimeter=0;labelBackgroundColor=default;strokeColor=default;fontFamily=Helvetica;fontSize=11;fontColor=default;endArrow=none;endFill=0;" parent="1" source="36" target="116" edge="1">
                    <mxGeometry relative="1" as="geometry">
                        <mxPoint x="360" y="260" as="sourcePoint"/>
                        <mxPoint x="390" y="288" as="targetPoint"/>
                    </mxGeometry>
                </mxCell>
                <mxCell id="118" style="edgeStyle=orthogonalEdgeStyle;shape=connector;rounded=0;html=1;exitX=0.5;exitY=1;exitDx=0;exitDy=0;entryX=0;entryY=0.25;entryDx=0;entryDy=0;entryPerimeter=0;labelBackgroundColor=default;strokeColor=default;fontFamily=Helvetica;fontSize=11;fontColor=default;endArrow=none;endFill=0;" parent="1" source="116" target="97" edge="1">
                    <mxGeometry relative="1" as="geometry"/>
                </mxCell>
                <mxCell id="119" style="edgeStyle=orthogonalEdgeStyle;shape=connector;rounded=0;html=1;exitX=1;exitY=0.5;exitDx=0;exitDy=0;entryX=0;entryY=0.25;entryDx=0;entryDy=0;entryPerimeter=0;labelBackgroundColor=default;strokeColor=default;fontFamily=Helvetica;fontSize=11;fontColor=default;endArrow=none;endFill=0;" parent="1" source="116" target="101" edge="1">
                    <mxGeometry relative="1" as="geometry">
                        <Array as="points">
                            <mxPoint x="390" y="260"/>
                        </Array>
                    </mxGeometry>
                </mxCell>
                <mxCell id="116" value="" style="ellipse;whiteSpace=wrap;html=1;aspect=fixed;fontFamily=Helvetica;fontSize=11;fontColor=default;strokeColor=#000000;fillColor=#000000;" parent="1" vertex="1">
                    <mxGeometry x="370" y="255" width="10" height="10" as="geometry"/>
                </mxCell>
                <mxCell id="148" style="edgeStyle=orthogonalEdgeStyle;shape=connector;rounded=0;html=1;exitX=1;exitY=0.5;exitDx=0;exitDy=0;exitPerimeter=0;entryX=0;entryY=0.57;entryDx=0;entryDy=0;entryPerimeter=0;labelBackgroundColor=default;strokeColor=default;fontFamily=Helvetica;fontSize=11;fontColor=default;endArrow=none;endFill=0;" parent="1" source="121" target="4" edge="1">
                    <mxGeometry relative="1" as="geometry">
                        <Array as="points">
                            <mxPoint x="730" y="260"/>
                            <mxPoint x="730" y="481"/>
                        </Array>
                    </mxGeometry>
                </mxCell>
                <mxCell id="121" value="" style="verticalLabelPosition=bottom;shadow=0;dashed=0;align=center;html=1;verticalAlign=top;shape=mxgraph.electrical.logic_gates.logic_gate;operation=xor;" parent="1" vertex="1">
                    <mxGeometry x="560" y="230" width="100" height="60" as="geometry"/>
                </mxCell>
                <mxCell id="147" style="edgeStyle=orthogonalEdgeStyle;shape=connector;rounded=0;html=1;exitX=1;exitY=0.5;exitDx=0;exitDy=0;exitPerimeter=0;entryX=0;entryY=0.25;entryDx=0;entryDy=0;entryPerimeter=0;labelBackgroundColor=default;strokeColor=default;fontFamily=Helvetica;fontSize=11;fontColor=default;endArrow=none;endFill=0;" parent="1" source="124" target="145" edge="1">
                    <mxGeometry relative="1" as="geometry">
                        <Array as="points">
                            <mxPoint x="680" y="150"/>
                            <mxPoint x="680" y="585"/>
                        </Array>
                    </mxGeometry>
                </mxCell>
                <mxCell id="124" value="" style="verticalLabelPosition=bottom;shadow=0;dashed=0;align=center;html=1;verticalAlign=top;shape=mxgraph.electrical.logic_gates.logic_gate;operation=and;fontFamily=Helvetica;fontSize=11;fontColor=default;" parent="1" vertex="1">
                    <mxGeometry x="560" y="120" width="100" height="60" as="geometry"/>
                </mxCell>
                <mxCell id="130" style="edgeStyle=orthogonalEdgeStyle;shape=connector;rounded=0;html=1;exitX=1;exitY=0.5;exitDx=0;exitDy=0;entryX=0;entryY=0.75;entryDx=0;entryDy=0;entryPerimeter=0;labelBackgroundColor=default;strokeColor=default;fontFamily=Helvetica;fontSize=11;fontColor=default;endArrow=none;endFill=0;" parent="1" source="129" target="121" edge="1">
                    <mxGeometry relative="1" as="geometry"/>
                </mxCell>
                <mxCell id="131" style="edgeStyle=orthogonalEdgeStyle;shape=connector;rounded=0;html=1;exitX=0.5;exitY=1;exitDx=0;exitDy=0;entryX=1;entryY=0.5;entryDx=0;entryDy=0;entryPerimeter=0;labelBackgroundColor=default;strokeColor=default;fontFamily=Helvetica;fontSize=11;fontColor=default;endArrow=none;endFill=0;" parent="1" source="129" target="97" edge="1">
                    <mxGeometry relative="1" as="geometry"/>
                </mxCell>
                <mxCell id="132" style="edgeStyle=orthogonalEdgeStyle;shape=connector;rounded=0;html=1;exitX=0.5;exitY=0;exitDx=0;exitDy=0;entryX=0;entryY=0.75;entryDx=0;entryDy=0;entryPerimeter=0;labelBackgroundColor=default;strokeColor=default;fontFamily=Helvetica;fontSize=11;fontColor=default;endArrow=none;endFill=0;" parent="1" source="129" target="124" edge="1">
                    <mxGeometry relative="1" as="geometry"/>
                </mxCell>
                <mxCell id="129" value="" style="ellipse;whiteSpace=wrap;html=1;aspect=fixed;fontFamily=Helvetica;fontSize=11;fontColor=default;strokeColor=#000000;fillColor=#000000;" parent="1" vertex="1">
                    <mxGeometry x="520" y="270" width="10" height="10" as="geometry"/>
                </mxCell>
                <mxCell id="210" style="edgeStyle=orthogonalEdgeStyle;shape=connector;rounded=0;html=1;exitX=0.5;exitY=0;exitDx=0;exitDy=0;labelBackgroundColor=default;strokeColor=default;fontFamily=Helvetica;fontSize=11;fontColor=default;endArrow=none;endFill=0;entryX=0;entryY=0.5;entryDx=0;entryDy=0;" parent="1" source="136" target="140" edge="1">
                    <mxGeometry relative="1" as="geometry">
                        <mxPoint x="350" y="200" as="targetPoint"/>
                    </mxGeometry>
                </mxCell>
                <mxCell id="136" value="" style="ellipse;whiteSpace=wrap;html=1;aspect=fixed;fontFamily=Helvetica;fontSize=11;fontColor=default;strokeColor=#000000;fillColor=#000000;" parent="1" vertex="1">
                    <mxGeometry x="275" y="265" width="10" height="10" as="geometry"/>
                </mxCell>
                <mxCell id="142" style="edgeStyle=orthogonalEdgeStyle;shape=connector;rounded=0;html=1;exitX=0.5;exitY=1;exitDx=0;exitDy=0;entryX=0;entryY=0.25;entryDx=0;entryDy=0;entryPerimeter=0;labelBackgroundColor=default;strokeColor=default;fontFamily=Helvetica;fontSize=11;fontColor=default;endArrow=none;endFill=0;" parent="1" source="140" target="121" edge="1">
                    <mxGeometry relative="1" as="geometry"/>
                </mxCell>
                <mxCell id="144" style="edgeStyle=orthogonalEdgeStyle;shape=connector;rounded=0;html=1;exitX=1;exitY=0.5;exitDx=0;exitDy=0;entryX=0;entryY=0.25;entryDx=0;entryDy=0;entryPerimeter=0;labelBackgroundColor=default;strokeColor=default;fontFamily=Helvetica;fontSize=11;fontColor=default;endArrow=none;endFill=0;" parent="1" source="140" target="124" edge="1">
                    <mxGeometry relative="1" as="geometry"/>
                </mxCell>
                <mxCell id="140" value="" style="ellipse;whiteSpace=wrap;html=1;aspect=fixed;fontFamily=Helvetica;fontSize=11;fontColor=default;strokeColor=#000000;fillColor=#000000;" parent="1" vertex="1">
                    <mxGeometry x="414" y="158" width="10" height="10" as="geometry"/>
                </mxCell>
                <mxCell id="209" style="edgeStyle=orthogonalEdgeStyle;shape=connector;rounded=0;html=1;exitX=1;exitY=0.5;exitDx=0;exitDy=0;exitPerimeter=0;entryX=0;entryY=0.5;entryDx=0;entryDy=0;labelBackgroundColor=default;strokeColor=default;fontFamily=Helvetica;fontSize=11;fontColor=default;endArrow=none;endFill=0;" parent="1" source="145" target="204" edge="1">
                    <mxGeometry relative="1" as="geometry">
                        <Array as="points">
                            <mxPoint x="470" y="570"/>
                            <mxPoint x="470" y="650"/>
                            <mxPoint x="750" y="650"/>
                            <mxPoint x="750" y="158"/>
                        </Array>
                    </mxGeometry>
                </mxCell>
                <mxCell id="145" value="" style="verticalLabelPosition=bottom;shadow=0;dashed=0;align=center;html=1;verticalAlign=top;shape=mxgraph.electrical.logic_gates.logic_gate;operation=or;fontFamily=Helvetica;fontSize=11;fontColor=default;rotation=-180;" parent="1" vertex="1">
                    <mxGeometry x="490" y="540" width="100" height="60" as="geometry"/>
                </mxCell>
                <mxCell id="152" style="edgeStyle=orthogonalEdgeStyle;shape=connector;rounded=0;html=1;exitX=0;exitY=0.5;exitDx=0;exitDy=0;entryX=0;entryY=0.5;entryDx=0;entryDy=0;labelBackgroundColor=default;strokeColor=default;fontFamily=Helvetica;fontSize=11;fontColor=default;endArrow=none;endFill=0;" parent="1" source="153" target="171" edge="1">
                    <mxGeometry relative="1" as="geometry">
                        <Array as="points">
                            <mxPoint x="860" y="476"/>
                            <mxPoint x="860" y="476"/>
                        </Array>
                    </mxGeometry>
                </mxCell>
                <mxCell id="153" value="" style="pointerEvents=1;verticalLabelPosition=bottom;shadow=0;dashed=0;align=center;html=1;verticalAlign=top;shape=mxgraph.electrical.miscellaneous.batteryStack;rotation=-90;" parent="1" vertex="1">
                    <mxGeometry x="790" y="396" width="100" height="60" as="geometry"/>
                </mxCell>
                <mxCell id="154" value="" style="verticalLabelPosition=bottom;shadow=0;dashed=0;align=center;html=1;verticalAlign=top;shape=mxgraph.electrical.opto_electronics.led_2;pointerEvents=1;rotation=-180;" parent="1" vertex="1">
                    <mxGeometry x="990" y="446" width="100" height="70" as="geometry"/>
                </mxCell>
                <mxCell id="155" value="+ 5 V" style="text;strokeColor=none;align=center;fillColor=none;html=1;verticalAlign=middle;whiteSpace=wrap;rounded=0;fontFamily=Helvetica;fontSize=11;fontColor=default;" parent="1" vertex="1">
                    <mxGeometry x="760" y="411" width="60" height="30" as="geometry"/>
                </mxCell>
                <mxCell id="156" style="edgeStyle=orthogonalEdgeStyle;shape=connector;rounded=0;html=1;exitX=1;exitY=0.88;exitDx=0;exitDy=0;entryX=1;entryY=0.5;entryDx=0;entryDy=0;labelBackgroundColor=default;strokeColor=default;fontFamily=Helvetica;fontSize=11;fontColor=default;endArrow=none;endFill=0;" parent="1" source="159" target="170" edge="1">
                    <mxGeometry relative="1" as="geometry"/>
                </mxCell>
                <mxCell id="157" style="edgeStyle=none;html=1;exitX=1;exitY=0.12;exitDx=0;exitDy=0;" parent="1" source="159" edge="1">
                    <mxGeometry relative="1" as="geometry">
                        <mxPoint x="885.0555555555557" y="364.83333333333326" as="targetPoint"/>
                    </mxGeometry>
                </mxCell>
                <mxCell id="158" style="edgeStyle=orthogonalEdgeStyle;shape=connector;rounded=0;html=1;exitX=0;exitY=0.5;exitDx=0;exitDy=0;entryX=0;entryY=0.75;entryDx=0;entryDy=0;entryPerimeter=0;labelBackgroundColor=default;strokeColor=default;fontFamily=Helvetica;fontSize=11;fontColor=default;endArrow=none;endFill=0;" parent="1" source="159" target="175" edge="1">
                    <mxGeometry relative="1" as="geometry"/>
                </mxCell>
                <mxCell id="159" value="" style="shape=mxgraph.electrical.electro-mechanical.twoWaySwitch;aspect=fixed;elSwitchState=2;rotation=-180;flipV=0;" parent="1" vertex="1">
                    <mxGeometry x="885" y="342" width="75" height="26" as="geometry"/>
                </mxCell>
                <mxCell id="160" value="B" style="text;strokeColor=none;align=center;fillColor=none;html=1;verticalAlign=middle;whiteSpace=wrap;rounded=0;fontFamily=Helvetica;fontSize=11;fontColor=default;" parent="1" vertex="1">
                    <mxGeometry x="900" y="381" width="60" height="30" as="geometry"/>
                </mxCell>
                <mxCell id="161" value="Sum" style="text;strokeColor=none;align=center;fillColor=none;html=1;verticalAlign=middle;whiteSpace=wrap;rounded=0;fontFamily=Helvetica;fontSize=11;fontColor=default;" parent="1" vertex="1">
                    <mxGeometry x="1010" y="505" width="60" height="30" as="geometry"/>
                </mxCell>
                <mxCell id="162" value="220 Î©" style="text;strokeColor=none;align=center;fillColor=none;html=1;verticalAlign=middle;whiteSpace=wrap;rounded=0;fontFamily=Helvetica;fontSize=11;fontColor=default;" parent="1" vertex="1">
                    <mxGeometry x="910" y="486" width="60" height="30" as="geometry"/>
                </mxCell>
                <mxCell id="163" value="" style="shape=mxgraph.electrical.electro-mechanical.twoWaySwitch;aspect=fixed;elSwitchState=2;rotation=-180;" parent="1" vertex="1">
                    <mxGeometry x="885" y="242" width="75" height="26" as="geometry"/>
                </mxCell>
                <mxCell id="164" style="edgeStyle=orthogonalEdgeStyle;shape=connector;rounded=0;html=1;exitX=1;exitY=0.5;exitDx=0;exitDy=0;exitPerimeter=0;entryX=1;entryY=0.5;entryDx=0;entryDy=0;labelBackgroundColor=default;strokeColor=default;fontFamily=Helvetica;fontSize=11;fontColor=default;endArrow=none;endFill=0;" parent="1" source="165" target="171" edge="1">
                    <mxGeometry relative="1" as="geometry"/>
                </mxCell>
                <mxCell id="165" value="" style="pointerEvents=1;verticalLabelPosition=bottom;shadow=0;dashed=0;align=center;html=1;verticalAlign=top;shape=mxgraph.electrical.resistors.resistor_2;rotation=-180;" parent="1" vertex="1">
                    <mxGeometry x="890" y="466" width="100" height="20" as="geometry"/>
                </mxCell>
                <mxCell id="166" value="A" style="text;strokeColor=none;align=center;fillColor=none;html=1;verticalAlign=middle;whiteSpace=wrap;rounded=0;fontFamily=Helvetica;fontSize=11;fontColor=default;" parent="1" vertex="1">
                    <mxGeometry x="885" y="205" width="60" height="30" as="geometry"/>
                </mxCell>
                <mxCell id="167" style="edgeStyle=orthogonalEdgeStyle;shape=connector;rounded=0;html=1;exitX=0.5;exitY=1;exitDx=0;exitDy=0;entryX=1;entryY=0.5;entryDx=0;entryDy=0;labelBackgroundColor=default;strokeColor=default;fontFamily=Helvetica;fontSize=11;fontColor=default;endArrow=none;endFill=0;" parent="1" source="170" target="153" edge="1">
                    <mxGeometry relative="1" as="geometry"/>
                </mxCell>
                <mxCell id="168" style="edgeStyle=orthogonalEdgeStyle;shape=connector;rounded=0;html=1;exitX=0.5;exitY=0;exitDx=0;exitDy=0;entryX=1;entryY=0.88;entryDx=0;entryDy=0;labelBackgroundColor=default;strokeColor=default;fontFamily=Helvetica;fontSize=11;fontColor=default;endArrow=none;endFill=0;" parent="1" source="170" target="163" edge="1">
                    <mxGeometry relative="1" as="geometry"/>
                </mxCell>
                <mxCell id="170" value="" style="ellipse;whiteSpace=wrap;html=1;aspect=fixed;fontFamily=Helvetica;fontSize=11;fontColor=default;strokeColor=#000000;fillColor=#000000;" parent="1" vertex="1">
                    <mxGeometry x="835" y="340" width="10" height="10" as="geometry"/>
                </mxCell>
                <mxCell id="171" value="" style="ellipse;whiteSpace=wrap;html=1;aspect=fixed;fontFamily=Helvetica;fontSize=11;fontColor=default;strokeColor=#000000;fillColor=#000000;" parent="1" vertex="1">
                    <mxGeometry x="875" y="471" width="10" height="10" as="geometry"/>
                </mxCell>
                <mxCell id="172" value="" style="edgeStyle=orthogonalEdgeStyle;shape=connector;rounded=0;html=1;exitX=1;exitY=0.12;exitDx=0;exitDy=0;labelBackgroundColor=default;strokeColor=default;fontFamily=Helvetica;fontSize=11;fontColor=default;endArrow=none;endFill=0;" parent="1" source="163" target="174" edge="1">
                    <mxGeometry relative="1" as="geometry">
                        <mxPoint x="880" y="475" as="targetPoint"/>
                        <Array as="points">
                            <mxPoint x="880" y="265"/>
                        </Array>
                        <mxPoint x="885" y="264.8799999999999" as="sourcePoint"/>
                    </mxGeometry>
                </mxCell>
                <mxCell id="173" style="edgeStyle=none;html=1;exitX=0.5;exitY=1;exitDx=0;exitDy=0;endArrow=none;endFill=0;" parent="1" source="174" target="171" edge="1">
                    <mxGeometry relative="1" as="geometry"/>
                </mxCell>
                <mxCell id="174" value="" style="ellipse;whiteSpace=wrap;html=1;aspect=fixed;fontFamily=Helvetica;fontSize=11;fontColor=default;strokeColor=#000000;fillColor=#000000;" parent="1" vertex="1">
                    <mxGeometry x="875" y="360" width="10" height="10" as="geometry"/>
                </mxCell>
                <mxCell id="175" value="" style="verticalLabelPosition=bottom;shadow=0;dashed=0;align=center;html=1;verticalAlign=top;shape=mxgraph.electrical.logic_gates.logic_gate;operation=xor;" parent="1" vertex="1">
                    <mxGeometry x="990" y="268" width="100" height="60" as="geometry"/>
                </mxCell>
                <mxCell id="176" style="edgeStyle=orthogonalEdgeStyle;shape=connector;rounded=0;html=1;exitX=1;exitY=0.5;exitDx=0;exitDy=0;exitPerimeter=0;entryX=0;entryY=0.75;entryDx=0;entryDy=0;entryPerimeter=0;labelBackgroundColor=default;strokeColor=default;fontFamily=Helvetica;fontSize=11;fontColor=default;endArrow=none;endFill=0;" parent="1" source="177" target="205" edge="1">
                    <mxGeometry relative="1" as="geometry"/>
                </mxCell>
                <mxCell id="177" value="" style="verticalLabelPosition=bottom;shadow=0;dashed=0;align=center;html=1;verticalAlign=top;shape=mxgraph.electrical.logic_gates.logic_gate;operation=and;" parent="1" vertex="1">
                    <mxGeometry x="990" y="360" width="100" height="60" as="geometry"/>
                </mxCell>
                <mxCell id="178" value="" style="verticalLabelPosition=bottom;shadow=0;dashed=0;align=center;html=1;verticalAlign=top;shape=mxgraph.electrical.opto_electronics.led_2;pointerEvents=1;rotation=-180;" parent="1" vertex="1">
                    <mxGeometry x="990" y="535" width="100" height="70" as="geometry"/>
                </mxCell>
                <mxCell id="179" style="edgeStyle=orthogonalEdgeStyle;shape=connector;rounded=0;html=1;exitX=1;exitY=0.5;exitDx=0;exitDy=0;exitPerimeter=0;entryX=0.5;entryY=1;entryDx=0;entryDy=0;labelBackgroundColor=default;strokeColor=default;fontFamily=Helvetica;fontSize=11;fontColor=default;endArrow=none;endFill=0;" parent="1" source="180" target="171" edge="1">
                    <mxGeometry relative="1" as="geometry"/>
                </mxCell>
                <mxCell id="180" value="" style="pointerEvents=1;verticalLabelPosition=bottom;shadow=0;dashed=0;align=center;html=1;verticalAlign=top;shape=mxgraph.electrical.resistors.resistor_2;rotation=-180;" parent="1" vertex="1">
                    <mxGeometry x="890" y="555" width="100" height="20" as="geometry"/>
                </mxCell>
                <mxCell id="181" value="Carry" style="text;strokeColor=none;align=center;fillColor=none;html=1;verticalAlign=middle;whiteSpace=wrap;rounded=0;fontFamily=Helvetica;fontSize=11;fontColor=default;" parent="1" vertex="1">
                    <mxGeometry x="1014" y="605" width="60" height="30" as="geometry"/>
                </mxCell>
                <mxCell id="182" value="220 Î©" style="text;strokeColor=none;align=center;fillColor=none;html=1;verticalAlign=middle;whiteSpace=wrap;rounded=0;fontFamily=Helvetica;fontSize=11;fontColor=default;" parent="1" vertex="1">
                    <mxGeometry x="910" y="575" width="60" height="30" as="geometry"/>
                </mxCell>
                <mxCell id="183" value="" style="edgeStyle=orthogonalEdgeStyle;shape=connector;rounded=0;html=1;exitX=0;exitY=0.5;exitDx=0;exitDy=0;entryX=0;entryY=0.75;entryDx=0;entryDy=0;entryPerimeter=0;labelBackgroundColor=default;strokeColor=default;fontFamily=Helvetica;fontSize=11;fontColor=default;endArrow=none;endFill=0;" parent="1" source="159" target="185" edge="1">
                    <mxGeometry relative="1" as="geometry">
                        <mxPoint x="960" y="355" as="sourcePoint"/>
                        <mxPoint x="990" y="405" as="targetPoint"/>
                    </mxGeometry>
                </mxCell>
                <mxCell id="184" style="edgeStyle=orthogonalEdgeStyle;shape=connector;rounded=0;html=1;exitX=0.5;exitY=1;exitDx=0;exitDy=0;entryX=0;entryY=0.75;entryDx=0;entryDy=0;entryPerimeter=0;labelBackgroundColor=default;strokeColor=default;fontFamily=Helvetica;fontSize=11;fontColor=default;endArrow=none;endFill=0;" parent="1" source="185" target="177" edge="1">
                    <mxGeometry relative="1" as="geometry"/>
                </mxCell>
                <mxCell id="185" value="" style="ellipse;whiteSpace=wrap;html=1;aspect=fixed;fontFamily=Helvetica;fontSize=11;fontColor=default;strokeColor=#000000;fillColor=#000000;" parent="1" vertex="1">
                    <mxGeometry x="970" y="350" width="10" height="10" as="geometry"/>
                </mxCell>
                <mxCell id="186" value="" style="edgeStyle=orthogonalEdgeStyle;shape=connector;rounded=0;html=1;exitX=0;exitY=0.5;exitDx=0;exitDy=0;entryX=0;entryY=0.25;entryDx=0;entryDy=0;entryPerimeter=0;labelBackgroundColor=default;strokeColor=default;fontFamily=Helvetica;fontSize=11;fontColor=default;endArrow=none;endFill=0;" parent="1" source="163" target="189" edge="1">
                    <mxGeometry relative="1" as="geometry">
                        <mxPoint x="960" y="255" as="sourcePoint"/>
                        <mxPoint x="990" y="283" as="targetPoint"/>
                    </mxGeometry>
                </mxCell>
                <mxCell id="187" style="edgeStyle=orthogonalEdgeStyle;shape=connector;rounded=0;html=1;exitX=0.5;exitY=1;exitDx=0;exitDy=0;entryX=0;entryY=0.25;entryDx=0;entryDy=0;entryPerimeter=0;labelBackgroundColor=default;strokeColor=default;fontFamily=Helvetica;fontSize=11;fontColor=default;endArrow=none;endFill=0;" parent="1" source="189" target="175" edge="1">
                    <mxGeometry relative="1" as="geometry"/>
                </mxCell>
                <mxCell id="188" style="edgeStyle=orthogonalEdgeStyle;shape=connector;rounded=0;html=1;exitX=1;exitY=0.5;exitDx=0;exitDy=0;entryX=0;entryY=0.25;entryDx=0;entryDy=0;entryPerimeter=0;labelBackgroundColor=default;strokeColor=default;fontFamily=Helvetica;fontSize=11;fontColor=default;endArrow=none;endFill=0;" parent="1" source="189" target="177" edge="1">
                    <mxGeometry relative="1" as="geometry">
                        <Array as="points">
                            <mxPoint x="990" y="255"/>
                        </Array>
                    </mxGeometry>
                </mxCell>
                <mxCell id="189" value="" style="ellipse;whiteSpace=wrap;html=1;aspect=fixed;fontFamily=Helvetica;fontSize=11;fontColor=default;strokeColor=#000000;fillColor=#000000;" parent="1" vertex="1">
                    <mxGeometry x="970" y="250" width="10" height="10" as="geometry"/>
                </mxCell>
                <mxCell id="190" style="edgeStyle=orthogonalEdgeStyle;shape=connector;rounded=0;html=1;exitX=1;exitY=0.5;exitDx=0;exitDy=0;exitPerimeter=0;entryX=0;entryY=0.57;entryDx=0;entryDy=0;entryPerimeter=0;labelBackgroundColor=default;strokeColor=default;fontFamily=Helvetica;fontSize=11;fontColor=default;endArrow=none;endFill=0;" parent="1" source="191" target="154" edge="1">
                    <mxGeometry relative="1" as="geometry">
                        <Array as="points">
                            <mxPoint x="1330" y="255"/>
                            <mxPoint x="1330" y="476"/>
                        </Array>
                    </mxGeometry>
                </mxCell>
                <mxCell id="191" value="" style="verticalLabelPosition=bottom;shadow=0;dashed=0;align=center;html=1;verticalAlign=top;shape=mxgraph.electrical.logic_gates.logic_gate;operation=xor;" parent="1" vertex="1">
                    <mxGeometry x="1160" y="225" width="100" height="60" as="geometry"/>
                </mxCell>
                <mxCell id="192" style="edgeStyle=orthogonalEdgeStyle;shape=connector;rounded=0;html=1;exitX=1;exitY=0.5;exitDx=0;exitDy=0;exitPerimeter=0;entryX=0;entryY=0.25;entryDx=0;entryDy=0;entryPerimeter=0;labelBackgroundColor=default;strokeColor=default;fontFamily=Helvetica;fontSize=11;fontColor=default;endArrow=none;endFill=0;" parent="1" source="193" target="205" edge="1">
                    <mxGeometry relative="1" as="geometry">
                        <Array as="points">
                            <mxPoint x="1280" y="145"/>
                            <mxPoint x="1280" y="580"/>
                        </Array>
                    </mxGeometry>
                </mxCell>
                <mxCell id="193" value="" style="verticalLabelPosition=bottom;shadow=0;dashed=0;align=center;html=1;verticalAlign=top;shape=mxgraph.electrical.logic_gates.logic_gate;operation=and;fontFamily=Helvetica;fontSize=11;fontColor=default;" parent="1" vertex="1">
                    <mxGeometry x="1160" y="115" width="100" height="60" as="geometry"/>
                </mxCell>
                <mxCell id="194" style="edgeStyle=orthogonalEdgeStyle;shape=connector;rounded=0;html=1;exitX=1;exitY=0.5;exitDx=0;exitDy=0;entryX=0;entryY=0.75;entryDx=0;entryDy=0;entryPerimeter=0;labelBackgroundColor=default;strokeColor=default;fontFamily=Helvetica;fontSize=11;fontColor=default;endArrow=none;endFill=0;" parent="1" source="197" target="191" edge="1">
                    <mxGeometry relative="1" as="geometry"/>
                </mxCell>
                <mxCell id="195" style="edgeStyle=orthogonalEdgeStyle;shape=connector;rounded=0;html=1;exitX=0.5;exitY=1;exitDx=0;exitDy=0;entryX=1;entryY=0.5;entryDx=0;entryDy=0;entryPerimeter=0;labelBackgroundColor=default;strokeColor=default;fontFamily=Helvetica;fontSize=11;fontColor=default;endArrow=none;endFill=0;" parent="1" source="197" target="175" edge="1">
                    <mxGeometry relative="1" as="geometry"/>
                </mxCell>
                <mxCell id="196" style="edgeStyle=orthogonalEdgeStyle;shape=connector;rounded=0;html=1;exitX=0.5;exitY=0;exitDx=0;exitDy=0;entryX=0;entryY=0.75;entryDx=0;entryDy=0;entryPerimeter=0;labelBackgroundColor=default;strokeColor=default;fontFamily=Helvetica;fontSize=11;fontColor=default;endArrow=none;endFill=0;" parent="1" source="197" target="193" edge="1">
                    <mxGeometry relative="1" as="geometry"/>
                </mxCell>
                <mxCell id="197" value="" style="ellipse;whiteSpace=wrap;html=1;aspect=fixed;fontFamily=Helvetica;fontSize=11;fontColor=default;strokeColor=#000000;fillColor=#000000;" parent="1" vertex="1">
                    <mxGeometry x="1120" y="265" width="10" height="10" as="geometry"/>
                </mxCell>
                <mxCell id="201" value="" style="ellipse;whiteSpace=wrap;html=1;aspect=fixed;fontFamily=Helvetica;fontSize=11;fontColor=default;strokeColor=#000000;fillColor=#000000;" parent="1" vertex="1">
                    <mxGeometry x="875" y="260" width="10" height="10" as="geometry"/>
                </mxCell>
                <mxCell id="202" style="edgeStyle=orthogonalEdgeStyle;shape=connector;rounded=0;html=1;exitX=0.5;exitY=1;exitDx=0;exitDy=0;entryX=0;entryY=0.25;entryDx=0;entryDy=0;entryPerimeter=0;labelBackgroundColor=default;strokeColor=default;fontFamily=Helvetica;fontSize=11;fontColor=default;endArrow=none;endFill=0;" parent="1" source="204" target="191" edge="1">
                    <mxGeometry relative="1" as="geometry"/>
                </mxCell>
                <mxCell id="203" style="edgeStyle=orthogonalEdgeStyle;shape=connector;rounded=0;html=1;exitX=1;exitY=0.5;exitDx=0;exitDy=0;entryX=0;entryY=0.25;entryDx=0;entryDy=0;entryPerimeter=0;labelBackgroundColor=default;strokeColor=default;fontFamily=Helvetica;fontSize=11;fontColor=default;endArrow=none;endFill=0;" parent="1" source="204" target="193" edge="1">
                    <mxGeometry relative="1" as="geometry"/>
                </mxCell>
                <mxCell id="204" value="" style="ellipse;whiteSpace=wrap;html=1;aspect=fixed;fontFamily=Helvetica;fontSize=11;fontColor=default;strokeColor=#000000;fillColor=#000000;" parent="1" vertex="1">
                    <mxGeometry x="1014" y="153" width="10" height="10" as="geometry"/>
                </mxCell>
                <mxCell id="205" value="" style="verticalLabelPosition=bottom;shadow=0;dashed=0;align=center;html=1;verticalAlign=top;shape=mxgraph.electrical.logic_gates.logic_gate;operation=or;fontFamily=Helvetica;fontSize=11;fontColor=default;rotation=-180;" parent="1" vertex="1">
                    <mxGeometry x="1090" y="535" width="100" height="60" as="geometry"/>
                </mxCell>
                <mxCell id="206" value="Cin" style="text;strokeColor=none;align=center;fillColor=none;html=1;verticalAlign=middle;whiteSpace=wrap;rounded=0;fontFamily=Helvetica;fontSize=11;fontColor=default;" parent="1" vertex="1">
                    <mxGeometry x="892.5" y="105" width="60" height="30" as="geometry"/>
                </mxCell>
                <mxCell id="212" value="&lt;table style=&quot;table-layout: fixed; font-size: 10pt; font-family: Arial; width: 0px; border-collapse: collapse; border: none;&quot; data-sheets-root=&quot;1&quot; border=&quot;1&quot; dir=&quot;ltr&quot; cellpadding=&quot;0&quot; cellspacing=&quot;0&quot; xmlns=&quot;http://www.w3.org/1999/xhtml&quot;&gt;&lt;colgroup&gt;&lt;col width=&quot;23&quot;&gt;&lt;col width=&quot;23&quot;&gt;&lt;col width=&quot;16&quot;&gt;&lt;col width=&quot;23&quot;&gt;&lt;col width=&quot;23&quot;&gt;&lt;col width=&quot;16&quot;&gt;&lt;col width=&quot;43&quot;&gt;&lt;col width=&quot;46&quot;&gt;&lt;col width=&quot;46&quot;&gt;&lt;/colgroup&gt;&lt;tbody&gt;&lt;tr style=&quot;height: 21px;&quot;&gt;&lt;td style=&quot;border: 1px solid rgb(204, 204, 204); overflow: hidden; padding: 2px 3px; vertical-align: bottom; font-size: 12pt; font-weight: bold; text-align: center;&quot; data-sheets-value=&quot;{&amp;quot;1&amp;quot;:2,&amp;quot;2&amp;quot;:&amp;quot;Aâ&amp;quot;}&quot;&gt;Aâ&lt;/td&gt;&lt;td style=&quot;border: 1px solid rgb(204, 204, 204); overflow: hidden; padding: 2px 3px; vertical-align: bottom; font-size: 12pt; font-weight: bold; text-align: center;&quot; data-sheets-value=&quot;{&amp;quot;1&amp;quot;:2,&amp;quot;2&amp;quot;:&amp;quot;Aâ&amp;quot;}&quot;&gt;Aâ&lt;/td&gt;&lt;td style=&quot;border: 1px solid rgb(204, 204, 204); overflow: hidden; padding: 2px 3px; vertical-align: bottom; font-size: 12pt; font-weight: bold; text-align: center;&quot; data-sheets-formula=&quot;=&amp;quot;+&amp;quot;&quot; data-sheets-value=&quot;{&amp;quot;1&amp;quot;:2,&amp;quot;2&amp;quot;:&amp;quot;+&amp;quot;}&quot;&gt;+&lt;/td&gt;&lt;td style=&quot;border: 1px solid rgb(204, 204, 204); overflow: hidden; padding: 2px 3px; vertical-align: bottom; font-size: 12pt; font-weight: bold; text-align: center;&quot; data-sheets-value=&quot;{&amp;quot;1&amp;quot;:2,&amp;quot;2&amp;quot;:&amp;quot;Bâ&amp;quot;}&quot;&gt;Bâ&lt;/td&gt;&lt;td style=&quot;border: 1px solid rgb(204, 204, 204); overflow: hidden; padding: 2px 3px; vertical-align: bottom; font-size: 12pt; font-weight: bold; text-align: center;&quot; data-sheets-value=&quot;{&amp;quot;1&amp;quot;:2,&amp;quot;2&amp;quot;:&amp;quot;Bâ&amp;quot;}&quot;&gt;Bâ&lt;/td&gt;&lt;td style=&quot;border: 1px solid rgb(204, 204, 204); overflow: hidden; padding: 2px 3px; vertical-align: bottom; background-color: rgb(0, 0, 0);&quot;&gt;&lt;/td&gt;&lt;td style=&quot;border: 1px solid rgb(204, 204, 204); overflow: hidden; padding: 2px 3px; vertical-align: bottom; font-size: 12pt; font-weight: bold; text-align: center;&quot; data-sheets-value=&quot;{&amp;quot;1&amp;quot;:2,&amp;quot;2&amp;quot;:&amp;quot;Cout&amp;quot;}&quot;&gt;Cout&lt;/td&gt;&lt;td style=&quot;border: 1px solid rgb(204, 204, 204); overflow: hidden; padding: 2px 3px; vertical-align: bottom; font-size: 12pt; font-weight: bold; text-align: center;&quot; data-sheets-value=&quot;{&amp;quot;1&amp;quot;:2,&amp;quot;2&amp;quot;:&amp;quot;Sumâ&amp;quot;}&quot;&gt;Sumâ&lt;/td&gt;&lt;td style=&quot;border: 1px solid rgb(204, 204, 204); overflow: hidden; padding: 2px 3px; vertical-align: bottom; font-size: 12pt; font-weight: bold; text-align: center;&quot; data-sheets-value=&quot;{&amp;quot;1&amp;quot;:2,&amp;quot;2&amp;quot;:&amp;quot;Sumâ&amp;quot;}&quot;&gt;Sumâ&lt;/td&gt;&lt;/tr&gt;&lt;tr style=&quot;height: 21px;&quot;&gt;&lt;td style=&quot;border: 1px solid rgb(204, 204, 204); overflow: hidden; padding: 2px 3px; vertical-align: bottom; text-align: center;&quot; data-sheets-value=&quot;{&amp;quot;1&amp;quot;:3,&amp;quot;3&amp;quot;:0}&quot;&gt;0&lt;/td&gt;&lt;td style=&quot;border: 1px solid rgb(204, 204, 204); overflow: hidden; padding: 2px 3px; vertical-align: bottom; text-align: center;&quot; data-sheets-value=&quot;{&amp;quot;1&amp;quot;:3,&amp;quot;3&amp;quot;:0}&quot;&gt;0&lt;/td&gt;&lt;td style=&quot;border: 1px solid rgb(204, 204, 204); overflow: hidden; padding: 2px 3px; vertical-align: bottom; text-align: center;&quot; data-sheets-formula=&quot;=&amp;quot;+&amp;quot;&quot; data-sheets-value=&quot;{&amp;quot;1&amp;quot;:2,&amp;quot;2&amp;quot;:&amp;quot;+&amp;quot;}&quot;&gt;+&lt;/td&gt;&lt;td style=&quot;border: 1px solid rgb(204, 204, 204); overflow: hidden; padding: 2px 3px; vertical-align: bottom; text-align: center;&quot; data-sheets-value=&quot;{&amp;quot;1&amp;quot;:3,&amp;quot;3&amp;quot;:0}&quot;&gt;0&lt;/td&gt;&lt;td style=&quot;border: 1px solid rgb(204, 204, 204); overflow: hidden; padding: 2px 3px; vertical-align: bottom; text-align: center;&quot; data-sheets-value=&quot;{&amp;quot;1&amp;quot;:3,&amp;quot;3&amp;quot;:0}&quot;&gt;0&lt;/td&gt;&lt;td style=&quot;border: 1px solid rgb(204, 204, 204); overflow: hidden; padding: 2px 3px; vertical-align: bottom; background-color: rgb(0, 0, 0);&quot;&gt;&lt;/td&gt;&lt;td style=&quot;border: 1px solid rgb(204, 204, 204); overflow: hidden; padding: 2px 3px; vertical-align: bottom; text-align: center;&quot; data-sheets-value=&quot;{&amp;quot;1&amp;quot;:3,&amp;quot;3&amp;quot;:0}&quot;&gt;0&lt;/td&gt;&lt;td style=&quot;border: 1px solid rgb(204, 204, 204); overflow: hidden; padding: 2px 3px; vertical-align: bottom; text-align: center;&quot; data-sheets-value=&quot;{&amp;quot;1&amp;quot;:3,&amp;quot;3&amp;quot;:0}&quot;&gt;0&lt;/td&gt;&lt;td style=&quot;border: 1px solid rgb(204, 204, 204); overflow: hidden; padding: 2px 3px; vertical-align: bottom; text-align: center;&quot; data-sheets-value=&quot;{&amp;quot;1&amp;quot;:3,&amp;quot;3&amp;quot;:0}&quot;&gt;0&lt;/td&gt;&lt;/tr&gt;&lt;tr style=&quot;height: 21px;&quot;&gt;&lt;td style=&quot;border: 1px solid rgb(204, 204, 204); overflow: hidden; padding: 2px 3px; vertical-align: bottom; text-align: center;&quot; data-sheets-value=&quot;{&amp;quot;1&amp;quot;:3,&amp;quot;3&amp;quot;:0}&quot;&gt;0&lt;/td&gt;&lt;td style=&quot;border: 1px solid rgb(204, 204, 204); overflow: hidden; padding: 2px 3px; vertical-align: bottom; text-align: center;&quot; data-sheets-value=&quot;{&amp;quot;1&amp;quot;:3,&amp;quot;3&amp;quot;:0}&quot;&gt;0&lt;/td&gt;&lt;td style=&quot;border: 1px solid rgb(204, 204, 204); overflow: hidden; padding: 2px 3px; vertical-align: bottom; text-align: center;&quot; data-sheets-formula=&quot;=&amp;quot;+&amp;quot;&quot; data-sheets-value=&quot;{&amp;quot;1&amp;quot;:2,&amp;quot;2&amp;quot;:&amp;quot;+&amp;quot;}&quot;&gt;+&lt;/td&gt;&lt;td style=&quot;border: 1px solid rgb(204, 204, 204); overflow: hidden; padding: 2px 3px; vertical-align: bottom; text-align: center;&quot; data-sheets-value=&quot;{&amp;quot;1&amp;quot;:3,&amp;quot;3&amp;quot;:0}&quot;&gt;0&lt;/td&gt;&lt;td style=&quot;border: 1px solid rgb(204, 204, 204); overflow: hidden; padding: 2px 3px; vertical-align: bottom; text-align: center;&quot; data-sheets-value=&quot;{&amp;quot;1&amp;quot;:3,&amp;quot;3&amp;quot;:1}&quot;&gt;1&lt;/td&gt;&lt;td style=&quot;border: 1px solid rgb(204, 204, 204); overflow: hidden; padding: 2px 3px; vertical-align: bottom; background-color: rgb(0, 0, 0);&quot;&gt;&lt;/td&gt;&lt;td style=&quot;border: 1px solid rgb(204, 204, 204); overflow: hidden; padding: 2px 3px; vertical-align: bottom; text-align: center;&quot; data-sheets-value=&quot;{&amp;quot;1&amp;quot;:3,&amp;quot;3&amp;quot;:0}&quot;&gt;0&lt;/td&gt;&lt;td style=&quot;border: 1px solid rgb(204, 204, 204); overflow: hidden; padding: 2px 3px; vertical-align: bottom; text-align: center;&quot; data-sheets-value=&quot;{&amp;quot;1&amp;quot;:3,&amp;quot;3&amp;quot;:0}&quot;&gt;0&lt;/td&gt;&lt;td style=&quot;border: 1px solid rgb(204, 204, 204); overflow: hidden; padding: 2px 3px; vertical-align: bottom; text-align: center;&quot; data-sheets-value=&quot;{&amp;quot;1&amp;quot;:3,&amp;quot;3&amp;quot;:1}&quot;&gt;1&lt;/td&gt;&lt;/tr&gt;&lt;tr style=&quot;height: 21px;&quot;&gt;&lt;td style=&quot;border: 1px solid rgb(204, 204, 204); overflow: hidden; padding: 2px 3px; vertical-align: bottom; text-align: center;&quot; data-sheets-value=&quot;{&amp;quot;1&amp;quot;:3,&amp;quot;3&amp;quot;:0}&quot;&gt;0&lt;/td&gt;&lt;td style=&quot;border: 1px solid rgb(204, 204, 204); overflow: hidden; padding: 2px 3px; vertical-align: bottom; text-align: center;&quot; data-sheets-value=&quot;{&amp;quot;1&amp;quot;:3,&amp;quot;3&amp;quot;:0}&quot;&gt;0&lt;/td&gt;&lt;td style=&quot;border: 1px solid rgb(204, 204, 204); overflow: hidden; padding: 2px 3px; vertical-align: bottom; text-align: center;&quot; data-sheets-formula=&quot;=&amp;quot;+&amp;quot;&quot; data-sheets-value=&quot;{&amp;quot;1&amp;quot;:2,&amp;quot;2&amp;quot;:&amp;quot;+&amp;quot;}&quot;&gt;+&lt;/td&gt;&lt;td style=&quot;border: 1px solid rgb(204, 204, 204); overflow: hidden; padding: 2px 3px; vertical-align: bottom; text-align: center;&quot; data-sheets-value=&quot;{&amp;quot;1&amp;quot;:3,&amp;quot;3&amp;quot;:1}&quot;&gt;1&lt;/td&gt;&lt;td style=&quot;border: 1px solid rgb(204, 204, 204); overflow: hidden; padding: 2px 3px; vertical-align: bottom; text-align: center;&quot; data-sheets-value=&quot;{&amp;quot;1&amp;quot;:3,&amp;quot;3&amp;quot;:0}&quot;&gt;0&lt;/td&gt;&lt;td style=&quot;border: 1px solid rgb(204, 204, 204); overflow: hidden; padding: 2px 3px; vertical-align: bottom; background-color: rgb(0, 0, 0);&quot;&gt;&lt;/td&gt;&lt;td style=&quot;border: 1px solid rgb(204, 204, 204); overflow: hidden; padding: 2px 3px; vertical-align: bottom; text-align: center;&quot; data-sheets-value=&quot;{&amp;quot;1&amp;quot;:3,&amp;quot;3&amp;quot;:0}&quot;&gt;0&lt;/td&gt;&lt;td style=&quot;border: 1px solid rgb(204, 204, 204); overflow: hidden; padding: 2px 3px; vertical-align: bottom; text-align: center;&quot; data-sheets-value=&quot;{&amp;quot;1&amp;quot;:3,&amp;quot;3&amp;quot;:1}&quot;&gt;1&lt;/td&gt;&lt;td style=&quot;border: 1px solid rgb(204, 204, 204); overflow: hidden; padding: 2px 3px; vertical-align: bottom; text-align: center;&quot; data-sheets-value=&quot;{&amp;quot;1&amp;quot;:3,&amp;quot;3&amp;quot;:0}&quot;&gt;0&lt;/td&gt;&lt;/tr&gt;&lt;tr style=&quot;height: 21px;&quot;&gt;&lt;td style=&quot;border: 1px solid rgb(204, 204, 204); overflow: hidden; padding: 2px 3px; vertical-align: bottom; text-align: center;&quot; data-sheets-value=&quot;{&amp;quot;1&amp;quot;:3,&amp;quot;3&amp;quot;:0}&quot;&gt;0&lt;/td&gt;&lt;td style=&quot;border: 1px solid rgb(204, 204, 204); overflow: hidden; padding: 2px 3px; vertical-align: bottom; text-align: center;&quot; data-sheets-value=&quot;{&amp;quot;1&amp;quot;:3,&amp;quot;3&amp;quot;:0}&quot;&gt;0&lt;/td&gt;&lt;td style=&quot;border: 1px solid rgb(204, 204, 204); overflow: hidden; padding: 2px 3px; vertical-align: bottom; text-align: center;&quot; data-sheets-formula=&quot;=&amp;quot;+&amp;quot;&quot; data-sheets-value=&quot;{&amp;quot;1&amp;quot;:2,&amp;quot;2&amp;quot;:&amp;quot;+&amp;quot;}&quot;&gt;+&lt;/td&gt;&lt;td style=&quot;border: 1px solid rgb(204, 204, 204); overflow: hidden; padding: 2px 3px; vertical-align: bottom; text-align: center;&quot; data-sheets-value=&quot;{&amp;quot;1&amp;quot;:3,&amp;quot;3&amp;quot;:1}&quot;&gt;1&lt;/td&gt;&lt;td style=&quot;border: 1px solid rgb(204, 204, 204); overflow: hidden; padding: 2px 3px; vertical-align: bottom; text-align: center;&quot; data-sheets-value=&quot;{&amp;quot;1&amp;quot;:3,&amp;quot;3&amp;quot;:1}&quot;&gt;1&lt;/td&gt;&lt;td style=&quot;border: 1px solid rgb(204, 204, 204); overflow: hidden; padding: 2px 3px; vertical-align: bottom; background-color: rgb(0, 0, 0);&quot;&gt;&lt;/td&gt;&lt;td style=&quot;border: 1px solid rgb(204, 204, 204); overflow: hidden; padding: 2px 3px; vertical-align: bottom; text-align: center;&quot; data-sheets-value=&quot;{&amp;quot;1&amp;quot;:3,&amp;quot;3&amp;quot;:0}&quot;&gt;0&lt;/td&gt;&lt;td style=&quot;border: 1px solid rgb(204, 204, 204); overflow: hidden; padding: 2px 3px; vertical-align: bottom; text-align: center;&quot; data-sheets-value=&quot;{&amp;quot;1&amp;quot;:3,&amp;quot;3&amp;quot;:1}&quot;&gt;1&lt;/td&gt;&lt;td style=&quot;border: 1px solid rgb(204, 204, 204); overflow: hidden; padding: 2px 3px; vertical-align: bottom; text-align: center;&quot; data-sheets-value=&quot;{&amp;quot;1&amp;quot;:3,&amp;quot;3&amp;quot;:1}&quot;&gt;1&lt;/td&gt;&lt;/tr&gt;&lt;tr style=&quot;height: 21px;&quot;&gt;&lt;td style=&quot;border: 1px solid rgb(204, 204, 204); overflow: hidden; padding: 2px 3px; vertical-align: bottom; text-align: center;&quot; data-sheets-value=&quot;{&amp;quot;1&amp;quot;:3,&amp;quot;3&amp;quot;:0}&quot;&gt;0&lt;/td&gt;&lt;td style=&quot;border: 1px solid rgb(204, 204, 204); overflow: hidden; padding: 2px 3px; vertical-align: bottom; text-align: center;&quot; data-sheets-value=&quot;{&amp;quot;1&amp;quot;:3,&amp;quot;3&amp;quot;:1}&quot;&gt;1&lt;/td&gt;&lt;td style=&quot;border: 1px solid rgb(204, 204, 204); overflow: hidden; padding: 2px 3px; vertical-align: bottom; text-align: center;&quot; data-sheets-formula=&quot;=&amp;quot;+&amp;quot;&quot; data-sheets-value=&quot;{&amp;quot;1&amp;quot;:2,&amp;quot;2&amp;quot;:&amp;quot;+&amp;quot;}&quot;&gt;+&lt;/td&gt;&lt;td style=&quot;border: 1px solid rgb(204, 204, 204); overflow: hidden; padding: 2px 3px; vertical-align: bottom; text-align: center;&quot; data-sheets-value=&quot;{&amp;quot;1&amp;quot;:3,&amp;quot;3&amp;quot;:0}&quot;&gt;0&lt;/td&gt;&lt;td style=&quot;border: 1px solid rgb(204, 204, 204); overflow: hidden; padding: 2px 3px; vertical-align: bottom; text-align: center;&quot; data-sheets-value=&quot;{&amp;quot;1&amp;quot;:3,&amp;quot;3&amp;quot;:0}&quot;&gt;0&lt;/td&gt;&lt;td style=&quot;border: 1px solid rgb(204, 204, 204); overflow: hidden; padding: 2px 3px; vertical-align: bottom; background-color: rgb(0, 0, 0);&quot;&gt;&lt;/td&gt;&lt;td style=&quot;border: 1px solid rgb(204, 204, 204); overflow: hidden; padding: 2px 3px; vertical-align: bottom; text-align: center;&quot; data-sheets-value=&quot;{&amp;quot;1&amp;quot;:3,&amp;quot;3&amp;quot;:0}&quot;&gt;0&lt;/td&gt;&lt;td style=&quot;border: 1px solid rgb(204, 204, 204); overflow: hidden; padding: 2px 3px; vertical-align: bottom; text-align: center;&quot; data-sheets-value=&quot;{&amp;quot;1&amp;quot;:3,&amp;quot;3&amp;quot;:0}&quot;&gt;0&lt;/td&gt;&lt;td style=&quot;border: 1px solid rgb(204, 204, 204); overflow: hidden; padding: 2px 3px; vertical-align: bottom; text-align: center;&quot; data-sheets-value=&quot;{&amp;quot;1&amp;quot;:3,&amp;quot;3&amp;quot;:1}&quot;&gt;1&lt;/td&gt;&lt;/tr&gt;&lt;tr style=&quot;height: 21px;&quot;&gt;&lt;td style=&quot;border: 1px solid rgb(204, 204, 204); overflow: hidden; padding: 2px 3px; vertical-align: bottom; text-align: center;&quot; data-sheets-value=&quot;{&amp;quot;1&amp;quot;:3,&amp;quot;3&amp;quot;:0}&quot;&gt;0&lt;/td&gt;&lt;td style=&quot;border: 1px solid rgb(204, 204, 204); overflow: hidden; padding: 2px 3px; vertical-align: bottom; text-align: center;&quot; data-sheets-value=&quot;{&amp;quot;1&amp;quot;:3,&amp;quot;3&amp;quot;:1}&quot;&gt;1&lt;/td&gt;&lt;td style=&quot;border: 1px solid rgb(204, 204, 204); overflow: hidden; padding: 2px 3px; vertical-align: bottom; text-align: center;&quot; data-sheets-formula=&quot;=&amp;quot;+&amp;quot;&quot; data-sheets-value=&quot;{&amp;quot;1&amp;quot;:2,&amp;quot;2&amp;quot;:&amp;quot;+&amp;quot;}&quot;&gt;+&lt;/td&gt;&lt;td style=&quot;border: 1px solid rgb(204, 204, 204); overflow: hidden; padding: 2px 3px; vertical-align: bottom; text-align: center;&quot; data-sheets-value=&quot;{&amp;quot;1&amp;quot;:3,&amp;quot;3&amp;quot;:0}&quot;&gt;0&lt;/td&gt;&lt;td style=&quot;border: 1px solid rgb(204, 204, 204); overflow: hidden; padding: 2px 3px; vertical-align: bottom; text-align: center;&quot; data-sheets-value=&quot;{&amp;quot;1&amp;quot;:3,&amp;quot;3&amp;quot;:1}&quot;&gt;1&lt;/td&gt;&lt;td style=&quot;border: 1px solid rgb(204, 204, 204); overflow: hidden; padding: 2px 3px; vertical-align: bottom; background-color: rgb(0, 0, 0);&quot;&gt;&lt;/td&gt;&lt;td style=&quot;border: 1px solid rgb(204, 204, 204); overflow: hidden; padding: 2px 3px; vertical-align: bottom; text-align: center;&quot; data-sheets-value=&quot;{&amp;quot;1&amp;quot;:3,&amp;quot;3&amp;quot;:0}&quot;&gt;0&lt;/td&gt;&lt;td style=&quot;border: 1px solid rgb(204, 204, 204); overflow: hidden; padding: 2px 3px; vertical-align: bottom; text-align: center;&quot; data-sheets-value=&quot;{&amp;quot;1&amp;quot;:3,&amp;quot;3&amp;quot;:1}&quot;&gt;1&lt;/td&gt;&lt;td style=&quot;border: 1px solid rgb(204, 204, 204); overflow: hidden; padding: 2px 3px; vertical-align: bottom; text-align: center;&quot; data-sheets-value=&quot;{&amp;quot;1&amp;quot;:3,&amp;quot;3&amp;quot;:0}&quot;&gt;0&lt;/td&gt;&lt;/tr&gt;&lt;tr style=&quot;height: 21px;&quot;&gt;&lt;td style=&quot;border: 1px solid rgb(204, 204, 204); overflow: hidden; padding: 2px 3px; vertical-align: bottom; text-align: center;&quot; data-sheets-value=&quot;{&amp;quot;1&amp;quot;:3,&amp;quot;3&amp;quot;:0}&quot;&gt;0&lt;/td&gt;&lt;td style=&quot;border: 1px solid rgb(204, 204, 204); overflow: hidden; padding: 2px 3px; vertical-align: bottom; text-align: center;&quot; data-sheets-value=&quot;{&amp;quot;1&amp;quot;:3,&amp;quot;3&amp;quot;:1}&quot;&gt;1&lt;/td&gt;&lt;td style=&quot;border: 1px solid rgb(204, 204, 204); overflow: hidden; padding: 2px 3px; vertical-align: bottom; text-align: center;&quot; data-sheets-formula=&quot;=&amp;quot;+&amp;quot;&quot; data-sheets-value=&quot;{&amp;quot;1&amp;quot;:2,&amp;quot;2&amp;quot;:&amp;quot;+&amp;quot;}&quot;&gt;+&lt;/td&gt;&lt;td style=&quot;border: 1px solid rgb(204, 204, 204); overflow: hidden; padding: 2px 3px; vertical-align: bottom; text-align: center;&quot; data-sheets-value=&quot;{&amp;quot;1&amp;quot;:3,&amp;quot;3&amp;quot;:1}&quot;&gt;1&lt;/td&gt;&lt;td style=&quot;border: 1px solid rgb(204, 204, 204); overflow: hidden; padding: 2px 3px; vertical-align: bottom; text-align: center;&quot; data-sheets-value=&quot;{&amp;quot;1&amp;quot;:3,&amp;quot;3&amp;quot;:0}&quot;&gt;0&lt;/td&gt;&lt;td style=&quot;border: 1px solid rgb(204, 204, 204); overflow: hidden; padding: 2px 3px; vertical-align: bottom; background-color: rgb(0, 0, 0);&quot;&gt;&lt;/td&gt;&lt;td style=&quot;border: 1px solid rgb(204, 204, 204); overflow: hidden; padding: 2px 3px; vertical-align: bottom; text-align: center;&quot; data-sheets-value=&quot;{&amp;quot;1&amp;quot;:3,&amp;quot;3&amp;quot;:0}&quot;&gt;0&lt;/td&gt;&lt;td style=&quot;border: 1px solid rgb(204, 204, 204); overflow: hidden; padding: 2px 3px; vertical-align: bottom; text-align: center;&quot; data-sheets-value=&quot;{&amp;quot;1&amp;quot;:3,&amp;quot;3&amp;quot;:1}&quot;&gt;1&lt;/td&gt;&lt;td style=&quot;border: 1px solid rgb(204, 204, 204); overflow: hidden; padding: 2px 3px; vertical-align: bottom; text-align: center;&quot; data-sheets-value=&quot;{&amp;quot;1&amp;quot;:3,&amp;quot;3&amp;quot;:1}&quot;&gt;1&lt;/td&gt;&lt;/tr&gt;&lt;tr style=&quot;height: 21px;&quot;&gt;&lt;td style=&quot;border: 1px solid rgb(204, 204, 204); overflow: hidden; padding: 2px 3px; vertical-align: bottom; text-align: center;&quot; data-sheets-value=&quot;{&amp;quot;1&amp;quot;:3,&amp;quot;3&amp;quot;:0}&quot;&gt;0&lt;/td&gt;&lt;td style=&quot;border: 1px solid rgb(204, 204, 204); overflow: hidden; padding: 2px 3px; vertical-align: bottom; text-align: center;&quot; data-sheets-value=&quot;{&amp;quot;1&amp;quot;:3,&amp;quot;3&amp;quot;:1}&quot;&gt;1&lt;/td&gt;&lt;td style=&quot;border: 1px solid rgb(204, 204, 204); overflow: hidden; padding: 2px 3px; vertical-align: bottom; text-align: center;&quot; data-sheets-formula=&quot;=&amp;quot;+&amp;quot;&quot; data-sheets-value=&quot;{&amp;quot;1&amp;quot;:2,&amp;quot;2&amp;quot;:&amp;quot;+&amp;quot;}&quot;&gt;+&lt;/td&gt;&lt;td style=&quot;border: 1px solid rgb(204, 204, 204); overflow: hidden; padding: 2px 3px; vertical-align: bottom; text-align: center;&quot; data-sheets-value=&quot;{&amp;quot;1&amp;quot;:3,&amp;quot;3&amp;quot;:1}&quot;&gt;1&lt;/td&gt;&lt;td style=&quot;border: 1px solid rgb(204, 204, 204); overflow: hidden; padding: 2px 3px; vertical-align: bottom; text-align: center;&quot; data-sheets-value=&quot;{&amp;quot;1&amp;quot;:3,&amp;quot;3&amp;quot;:1}&quot;&gt;1&lt;/td&gt;&lt;td style=&quot;border: 1px solid rgb(204, 204, 204); overflow: hidden; padding: 2px 3px; vertical-align: bottom; background-color: rgb(0, 0, 0);&quot;&gt;&lt;/td&gt;&lt;td style=&quot;border: 1px solid rgb(204, 204, 204); overflow: hidden; padding: 2px 3px; vertical-align: bottom; text-align: center;&quot; data-sheets-value=&quot;{&amp;quot;1&amp;quot;:3,&amp;quot;3&amp;quot;:1}&quot;&gt;1&lt;/td&gt;&lt;td style=&quot;border: 1px solid rgb(204, 204, 204); overflow: hidden; padding: 2px 3px; vertical-align: bottom; text-align: center;&quot; data-sheets-value=&quot;{&amp;quot;1&amp;quot;:3,&amp;quot;3&amp;quot;:0}&quot;&gt;0&lt;/td&gt;&lt;td style=&quot;border: 1px solid rgb(204, 204, 204); overflow: hidden; padding: 2px 3px; vertical-align: bottom; text-align: center;&quot; data-sheets-value=&quot;{&amp;quot;1&amp;quot;:3,&amp;quot;3&amp;quot;:0}&quot;&gt;0&lt;/td&gt;&lt;/tr&gt;&lt;tr style=&quot;height: 21px;&quot;&gt;&lt;td style=&quot;border: 1px solid rgb(204, 204, 204); overflow: hidden; padding: 2px 3px; vertical-align: bottom; text-align: center;&quot; data-sheets-value=&quot;{&amp;quot;1&amp;quot;:3,&amp;quot;3&amp;quot;:1}&quot;&gt;1&lt;/td&gt;&lt;td style=&quot;border: 1px solid rgb(204, 204, 204); overflow: hidden; padding: 2px 3px; vertical-align: bottom; text-align: center;&quot; data-sheets-value=&quot;{&amp;quot;1&amp;quot;:3,&amp;quot;3&amp;quot;:0}&quot;&gt;0&lt;/td&gt;&lt;td style=&quot;border: 1px solid rgb(204, 204, 204); overflow: hidden; padding: 2px 3px; vertical-align: bottom; text-align: center;&quot; data-sheets-formula=&quot;=&amp;quot;+&amp;quot;&quot; data-sheets-value=&quot;{&amp;quot;1&amp;quot;:2,&amp;quot;2&amp;quot;:&amp;quot;+&amp;quot;}&quot;&gt;+&lt;/td&gt;&lt;td style=&quot;border: 1px solid rgb(204, 204, 204); overflow: hidden; padding: 2px 3px; vertical-align: bottom; text-align: center;&quot; data-sheets-value=&quot;{&amp;quot;1&amp;quot;:3,&amp;quot;3&amp;quot;:0}&quot;&gt;0&lt;/td&gt;&lt;td style=&quot;border: 1px solid rgb(204, 204, 204); overflow: hidden; padding: 2px 3px; vertical-align: bottom; text-align: center;&quot; data-sheets-value=&quot;{&amp;quot;1&amp;quot;:3,&amp;quot;3&amp;quot;:0}&quot;&gt;0&lt;/td&gt;&lt;td style=&quot;border: 1px solid rgb(204, 204, 204); overflow: hidden; padding: 2px 3px; vertical-align: bottom; background-color: rgb(0, 0, 0);&quot;&gt;&lt;/td&gt;&lt;td style=&quot;border: 1px solid rgb(204, 204, 204); overflow: hidden; padding: 2px 3px; vertical-align: bottom; text-align: center;&quot; data-sheets-value=&quot;{&amp;quot;1&amp;quot;:3,&amp;quot;3&amp;quot;:0}&quot;&gt;0&lt;/td&gt;&lt;td style=&quot;border: 1px solid rgb(204, 204, 204); overflow: hidden; padding: 2px 3px; vertical-align: bottom; text-align: center;&quot; data-sheets-value=&quot;{&amp;quot;1&amp;quot;:3,&amp;quot;3&amp;quot;:1}&quot;&gt;1&lt;/td&gt;&lt;td style=&quot;border: 1px solid rgb(204, 204, 204); overflow: hidden; padding: 2px 3px; vertical-align: bottom; text-align: center;&quot; data-sheets-value=&quot;{&amp;quot;1&amp;quot;:3,&amp;quot;3&amp;quot;:0}&quot;&gt;0&lt;/td&gt;&lt;/tr&gt;&lt;tr style=&quot;height: 21px;&quot;&gt;&lt;td style=&quot;border: 1px solid rgb(204, 204, 204); overflow: hidden; padding: 2px 3px; vertical-align: bottom; text-align: center;&quot; data-sheets-value=&quot;{&amp;quot;1&amp;quot;:3,&amp;quot;3&amp;quot;:1}&quot;&gt;1&lt;/td&gt;&lt;td style=&quot;border: 1px solid rgb(204, 204, 204); overflow: hidden; padding: 2px 3px; vertical-align: bottom; text-align: center;&quot; data-sheets-value=&quot;{&amp;quot;1&amp;quot;:3,&amp;quot;3&amp;quot;:0}&quot;&gt;0&lt;/td&gt;&lt;td style=&quot;border: 1px solid rgb(204, 204, 204); overflow: hidden; padding: 2px 3px; vertical-align: bottom; text-align: center;&quot; data-sheets-formula=&quot;=&amp;quot;+&amp;quot;&quot; data-sheets-value=&quot;{&amp;quot;1&amp;quot;:2,&amp;quot;2&amp;quot;:&amp;quot;+&amp;quot;}&quot;&gt;+&lt;/td&gt;&lt;td style=&quot;border: 1px solid rgb(204, 204, 204); overflow: hidden; padding: 2px 3px; vertical-align: bottom; text-align: center;&quot; data-sheets-value=&quot;{&amp;quot;1&amp;quot;:3,&amp;quot;3&amp;quot;:0}&quot;&gt;0&lt;/td&gt;&lt;td style=&quot;border: 1px solid rgb(204, 204, 204); overflow: hidden; padding: 2px 3px; vertical-align: bottom; text-align: center;&quot; data-sheets-value=&quot;{&amp;quot;1&amp;quot;:3,&amp;quot;3&amp;quot;:1}&quot;&gt;1&lt;/td&gt;&lt;td style=&quot;border: 1px solid rgb(204, 204, 204); overflow: hidden; padding: 2px 3px; vertical-align: bottom; background-color: rgb(0, 0, 0);&quot;&gt;&lt;/td&gt;&lt;td style=&quot;border: 1px solid rgb(204, 204, 204); overflow: hidden; padding: 2px 3px; vertical-align: bottom; text-align: center;&quot; data-sheets-value=&quot;{&amp;quot;1&amp;quot;:3,&amp;quot;3&amp;quot;:0}&quot;&gt;0&lt;/td&gt;&lt;td style=&quot;border: 1px solid rgb(204, 204, 204); overflow: hidden; padding: 2px 3px; vertical-align: bottom; text-align: center;&quot; data-sheets-value=&quot;{&amp;quot;1&amp;quot;:3,&amp;quot;3&amp;quot;:1}&quot;&gt;1&lt;/td&gt;&lt;td style=&quot;border: 1px solid rgb(204, 204, 204); overflow: hidden; padding: 2px 3px; vertical-align: bottom; text-align: center;&quot; data-sheets-value=&quot;{&amp;quot;1&amp;quot;:3,&amp;quot;3&amp;quot;:1}&quot;&gt;1&lt;/td&gt;&lt;/tr&gt;&lt;tr style=&quot;height: 21px;&quot;&gt;&lt;td style=&quot;border: 1px solid rgb(204, 204, 204); overflow: hidden; padding: 2px 3px; vertical-align: bottom; text-align: center;&quot; data-sheets-value=&quot;{&amp;quot;1&amp;quot;:3,&amp;quot;3&amp;quot;:1}&quot;&gt;1&lt;/td&gt;&lt;td style=&quot;border: 1px solid rgb(204, 204, 204); overflow: hidden; padding: 2px 3px; vertical-align: bottom; text-align: center;&quot; data-sheets-value=&quot;{&amp;quot;1&amp;quot;:3,&amp;quot;3&amp;quot;:0}&quot;&gt;0&lt;/td&gt;&lt;td style=&quot;border: 1px solid rgb(204, 204, 204); overflow: hidden; padding: 2px 3px; vertical-align: bottom; text-align: center;&quot; data-sheets-formula=&quot;=&amp;quot;+&amp;quot;&quot; data-sheets-value=&quot;{&amp;quot;1&amp;quot;:2,&amp;quot;2&amp;quot;:&amp;quot;+&amp;quot;}&quot;&gt;+&lt;/td&gt;&lt;td style=&quot;border: 1px solid rgb(204, 204, 204); overflow: hidden; padding: 2px 3px; vertical-align: bottom; text-align: center;&quot; data-sheets-value=&quot;{&amp;quot;1&amp;quot;:3,&amp;quot;3&amp;quot;:1}&quot;&gt;1&lt;/td&gt;&lt;td style=&quot;border: 1px solid rgb(204, 204, 204); overflow: hidden; padding: 2px 3px; vertical-align: bottom; text-align: center;&quot; data-sheets-value=&quot;{&amp;quot;1&amp;quot;:3,&amp;quot;3&amp;quot;:0}&quot;&gt;0&lt;/td&gt;&lt;td style=&quot;border: 1px solid rgb(204, 204, 204); overflow: hidden; padding: 2px 3px; vertical-align: bottom; background-color: rgb(0, 0, 0);&quot;&gt;&lt;/td&gt;&lt;td style=&quot;border: 1px solid rgb(204, 204, 204); overflow: hidden; padding: 2px 3px; vertical-align: bottom; text-align: center;&quot; data-sheets-value=&quot;{&amp;quot;1&amp;quot;:3,&amp;quot;3&amp;quot;:1}&quot;&gt;1&lt;/td&gt;&lt;td style=&quot;border: 1px solid rgb(204, 204, 204); overflow: hidden; padding: 2px 3px; vertical-align: bottom; text-align: center;&quot; data-sheets-value=&quot;{&amp;quot;1&amp;quot;:3,&amp;quot;3&amp;quot;:0}&quot;&gt;0&lt;/td&gt;&lt;td style=&quot;border: 1px solid rgb(204, 204, 204); overflow: hidden; padding: 2px 3px; vertical-align: bottom; text-align: center;&quot; data-sheets-value=&quot;{&amp;quot;1&amp;quot;:3,&amp;quot;3&amp;quot;:0}&quot;&gt;0&lt;/td&gt;&lt;/tr&gt;&lt;tr style=&quot;height: 21px;&quot;&gt;&lt;td style=&quot;border: 1px solid rgb(204, 204, 204); overflow: hidden; padding: 2px 3px; vertical-align: bottom; text-align: center;&quot; data-sheets-value=&quot;{&amp;quot;1&amp;quot;:3,&amp;quot;3&amp;quot;:1}&quot;&gt;1&lt;/td&gt;&lt;td style=&quot;border: 1px solid rgb(204, 204, 204); overflow: hidden; padding: 2px 3px; vertical-align: bottom; text-align: center;&quot; data-sheets-value=&quot;{&amp;quot;1&amp;quot;:3,&amp;quot;3&amp;quot;:0}&quot;&gt;0&lt;/td&gt;&lt;td style=&quot;border: 1px solid rgb(204, 204, 204); overflow: hidden; padding: 2px 3px; vertical-align: bottom; text-align: center;&quot; data-sheets-formula=&quot;=&amp;quot;+&amp;quot;&quot; data-sheets-value=&quot;{&amp;quot;1&amp;quot;:2,&amp;quot;2&amp;quot;:&amp;quot;+&amp;quot;}&quot;&gt;+&lt;/td&gt;&lt;td style=&quot;border: 1px solid rgb(204, 204, 204); overflow: hidden; padding: 2px 3px; vertical-align: bottom; text-align: center;&quot; data-sheets-value=&quot;{&amp;quot;1&amp;quot;:3,&amp;quot;3&amp;quot;:1}&quot;&gt;1&lt;/td&gt;&lt;td style=&quot;border: 1px solid rgb(204, 204, 204); overflow: hidden; padding: 2px 3px; vertical-align: bottom; text-align: center;&quot; data-sheets-value=&quot;{&amp;quot;1&amp;quot;:3,&amp;quot;3&amp;quot;:1}&quot;&gt;1&lt;/td&gt;&lt;td style=&quot;border: 1px solid rgb(204, 204, 204); overflow: hidden; padding: 2px 3px; vertical-align: bottom; background-color: rgb(0, 0, 0);&quot;&gt;&lt;/td&gt;&lt;td style=&quot;border: 1px solid rgb(204, 204, 204); overflow: hidden; padding: 2px 3px; vertical-align: bottom; text-align: center;&quot; data-sheets-value=&quot;{&amp;quot;1&amp;quot;:3,&amp;quot;3&amp;quot;:1}&quot;&gt;1&lt;/td&gt;&lt;td style=&quot;border: 1px solid rgb(204, 204, 204); overflow: hidden; padding: 2px 3px; vertical-align: bottom; text-align: center;&quot; data-sheets-value=&quot;{&amp;quot;1&amp;quot;:3,&amp;quot;3&amp;quot;:0}&quot;&gt;0&lt;/td&gt;&lt;td style=&quot;border: 1px solid rgb(204, 204, 204); overflow: hidden; padding: 2px 3px; vertical-align: bottom; text-align: center;&quot; data-sheets-value=&quot;{&amp;quot;1&amp;quot;:3,&amp;quot;3&amp;quot;:1}&quot;&gt;1&lt;/td&gt;&lt;/tr&gt;&lt;tr style=&quot;height: 21px;&quot;&gt;&lt;td style=&quot;border: 1px solid rgb(204, 204, 204); overflow: hidden; padding: 2px 3px; vertical-align: bottom; text-align: center;&quot; data-sheets-value=&quot;{&amp;quot;1&amp;quot;:3,&amp;quot;3&amp;quot;:1}&quot;&gt;1&lt;/td&gt;&lt;td style=&quot;border: 1px solid rgb(204, 204, 204); overflow: hidden; padding: 2px 3px; vertical-align: bottom; text-align: center;&quot; data-sheets-value=&quot;{&amp;quot;1&amp;quot;:3,&amp;quot;3&amp;quot;:1}&quot;&gt;1&lt;/td&gt;&lt;td style=&quot;border: 1px solid rgb(204, 204, 204); overflow: hidden; padding: 2px 3px; vertical-align: bottom; text-align: center;&quot; data-sheets-formula=&quot;=&amp;quot;+&amp;quot;&quot; data-sheets-value=&quot;{&amp;quot;1&amp;quot;:2,&amp;quot;2&amp;quot;:&amp;quot;+&amp;quot;}&quot;&gt;+&lt;/td&gt;&lt;td style=&quot;border: 1px solid rgb(204, 204, 204); overflow: hidden; padding: 2px 3px; vertical-align: bottom; text-align: center;&quot; data-sheets-value=&quot;{&amp;quot;1&amp;quot;:3,&amp;quot;3&amp;quot;:0}&quot;&gt;0&lt;/td&gt;&lt;td style=&quot;border: 1px solid rgb(204, 204, 204); overflow: hidden; padding: 2px 3px; vertical-align: bottom; text-align: center;&quot; data-sheets-value=&quot;{&amp;quot;1&amp;quot;:3,&amp;quot;3&amp;quot;:0}&quot;&gt;0&lt;/td&gt;&lt;td style=&quot;border: 1px solid rgb(204, 204, 204); overflow: hidden; padding: 2px 3px; vertical-align: bottom; background-color: rgb(0, 0, 0);&quot;&gt;&lt;/td&gt;&lt;td style=&quot;border: 1px solid rgb(204, 204, 204); overflow: hidden; padding: 2px 3px; vertical-align: bottom; text-align: center;&quot; data-sheets-value=&quot;{&amp;quot;1&amp;quot;:3,&amp;quot;3&amp;quot;:0}&quot;&gt;0&lt;/td&gt;&lt;td style=&quot;border: 1px solid rgb(204, 204, 204); overflow: hidden; padding: 2px 3px; vertical-align: bottom; text-align: center;&quot; data-sheets-value=&quot;{&amp;quot;1&amp;quot;:3,&amp;quot;3&amp;quot;:1}&quot;&gt;1&lt;/td&gt;&lt;td style=&quot;border: 1px solid rgb(204, 204, 204); overflow: hidden; padding: 2px 3px; vertical-align: bottom; text-align: center;&quot; data-sheets-value=&quot;{&amp;quot;1&amp;quot;:3,&amp;quot;3&amp;quot;:1}&quot;&gt;1&lt;/td&gt;&lt;/tr&gt;&lt;tr style=&quot;height: 21px;&quot;&gt;&lt;td style=&quot;border: 1px solid rgb(204, 204, 204); overflow: hidden; padding: 2px 3px; vertical-align: bottom; text-align: center;&quot; data-sheets-value=&quot;{&amp;quot;1&amp;quot;:3,&amp;quot;3&amp;quot;:1}&quot;&gt;1&lt;/td&gt;&lt;td style=&quot;border: 1px solid rgb(204, 204, 204); overflow: hidden; padding: 2px 3px; vertical-align: bottom; text-align: center;&quot; data-sheets-value=&quot;{&amp;quot;1&amp;quot;:3,&amp;quot;3&amp;quot;:1}&quot;&gt;1&lt;/td&gt;&lt;td style=&quot;border: 1px solid rgb(204, 204, 204); overflow: hidden; padding: 2px 3px; vertical-align: bottom; text-align: center;&quot; data-sheets-formula=&quot;=&amp;quot;+&amp;quot;&quot; data-sheets-value=&quot;{&amp;quot;1&amp;quot;:2,&amp;quot;2&amp;quot;:&amp;quot;+&amp;quot;}&quot;&gt;+&lt;/td&gt;&lt;td style=&quot;border: 1px solid rgb(204, 204, 204); overflow: hidden; padding: 2px 3px; vertical-align: bottom; text-align: center;&quot; data-sheets-value=&quot;{&amp;quot;1&amp;quot;:3,&amp;quot;3&amp;quot;:0}&quot;&gt;0&lt;/td&gt;&lt;td style=&quot;border: 1px solid rgb(204, 204, 204); overflow: hidden; padding: 2px 3px; vertical-align: bottom; text-align: center;&quot; data-sheets-value=&quot;{&amp;quot;1&amp;quot;:3,&amp;quot;3&amp;quot;:1}&quot;&gt;1&lt;/td&gt;&lt;td style=&quot;border: 1px solid rgb(204, 204, 204); overflow: hidden; padding: 2px 3px; vertical-align: bottom; background-color: rgb(0, 0, 0);&quot;&gt;&lt;/td&gt;&lt;td style=&quot;border: 1px solid rgb(204, 204, 204); overflow: hidden; padding: 2px 3px; vertical-align: bottom; text-align: center;&quot; data-sheets-value=&quot;{&amp;quot;1&amp;quot;:3,&amp;quot;3&amp;quot;:1}&quot;&gt;1&lt;/td&gt;&lt;td style=&quot;border: 1px solid rgb(204, 204, 204); overflow: hidden; padding: 2px 3px; vertical-align: bottom; text-align: center;&quot; data-sheets-value=&quot;{&amp;quot;1&amp;quot;:3,&amp;quot;3&amp;quot;:0}&quot;&gt;0&lt;/td&gt;&lt;td style=&quot;border: 1px solid rgb(204, 204, 204); overflow: hidden; padding: 2px 3px; vertical-align: bottom; text-align: center;&quot; data-sheets-value=&quot;{&amp;quot;1&amp;quot;:3,&amp;quot;3&amp;quot;:0}&quot;&gt;0&lt;/td&gt;&lt;/tr&gt;&lt;tr style=&quot;height: 21px;&quot;&gt;&lt;td style=&quot;border: 1px solid rgb(204, 204, 204); overflow: hidden; padding: 2px 3px; vertical-align: bottom; text-align: center;&quot; data-sheets-value=&quot;{&amp;quot;1&amp;quot;:3,&amp;quot;3&amp;quot;:1}&quot;&gt;1&lt;/td&gt;&lt;td style=&quot;border: 1px solid rgb(204, 204, 204); overflow: hidden; padding: 2px 3px; vertical-align: bottom; text-align: center;&quot; data-sheets-value=&quot;{&amp;quot;1&amp;quot;:3,&amp;quot;3&amp;quot;:1}&quot;&gt;1&lt;/td&gt;&lt;td style=&quot;border: 1px solid rgb(204, 204, 204); overflow: hidden; padding: 2px 3px; vertical-align: bottom; text-align: center;&quot; data-sheets-formula=&quot;=&amp;quot;+&amp;quot;&quot; data-sheets-value=&quot;{&amp;quot;1&amp;quot;:2,&amp;quot;2&amp;quot;:&amp;quot;+&amp;quot;}&quot;&gt;+&lt;/td&gt;&lt;td style=&quot;border: 1px solid rgb(204, 204, 204); overflow: hidden; padding: 2px 3px; vertical-align: bottom; text-align: center;&quot; data-sheets-value=&quot;{&amp;quot;1&amp;quot;:3,&amp;quot;3&amp;quot;:1}&quot;&gt;1&lt;/td&gt;&lt;td style=&quot;border: 1px solid rgb(204, 204, 204); overflow: hidden; padding: 2px 3px; vertical-align: bottom; text-align: center;&quot; data-sheets-value=&quot;{&amp;quot;1&amp;quot;:3,&amp;quot;3&amp;quot;:0}&quot;&gt;0&lt;/td&gt;&lt;td style=&quot;border: 1px solid rgb(204, 204, 204); overflow: hidden; padding: 2px 3px; vertical-align: bottom; background-color: rgb(0, 0, 0);&quot;&gt;&lt;/td&gt;&lt;td style=&quot;border: 1px solid rgb(204, 204, 204); overflow: hidden; padding: 2px 3px; vertical-align: bottom; text-align: center;&quot; data-sheets-value=&quot;{&amp;quot;1&amp;quot;:3,&amp;quot;3&amp;quot;:1}&quot;&gt;1&lt;/td&gt;&lt;td style=&quot;border: 1px solid rgb(204, 204, 204); overflow: hidden; padding: 2px 3px; vertical-align: bottom; text-align: center;&quot; data-sheets-value=&quot;{&amp;quot;1&amp;quot;:3,&amp;quot;3&amp;quot;:0}&quot;&gt;0&lt;/td&gt;&lt;td style=&quot;border: 1px solid rgb(204, 204, 204); overflow: hidden; padding: 2px 3px; vertical-align: bottom; text-align: center;&quot; data-sheets-value=&quot;{&amp;quot;1&amp;quot;:3,&amp;quot;3&amp;quot;:1}&quot;&gt;1&lt;/td&gt;&lt;/tr&gt;&lt;tr style=&quot;height: 21px;&quot;&gt;&lt;td style=&quot;border: 1px solid rgb(204, 204, 204); overflow: hidden; padding: 2px 3px; vertical-align: bottom; text-align: center;&quot; data-sheets-value=&quot;{&amp;quot;1&amp;quot;:3,&amp;quot;3&amp;quot;:1}&quot;&gt;1&lt;/td&gt;&lt;td style=&quot;border: 1px solid rgb(204, 204, 204); overflow: hidden; padding: 2px 3px; vertical-align: bottom; text-align: center;&quot; data-sheets-value=&quot;{&amp;quot;1&amp;quot;:3,&amp;quot;3&amp;quot;:1}&quot;&gt;1&lt;/td&gt;&lt;td style=&quot;border: 1px solid rgb(204, 204, 204); overflow: hidden; padding: 2px 3px; vertical-align: bottom; text-align: center;&quot; data-sheets-formula=&quot;=&amp;quot;+&amp;quot;&quot; data-sheets-value=&quot;{&amp;quot;1&amp;quot;:2,&amp;quot;2&amp;quot;:&amp;quot;+&amp;quot;}&quot;&gt;+&lt;/td&gt;&lt;td style=&quot;border: 1px solid rgb(204, 204, 204); overflow: hidden; padding: 2px 3px; vertical-align: bottom; text-align: center;&quot; data-sheets-value=&quot;{&amp;quot;1&amp;quot;:3,&amp;quot;3&amp;quot;:1}&quot;&gt;1&lt;/td&gt;&lt;td style=&quot;border: 1px solid rgb(204, 204, 204); overflow: hidden; padding: 2px 3px; vertical-align: bottom; text-align: center;&quot; data-sheets-value=&quot;{&amp;quot;1&amp;quot;:3,&amp;quot;3&amp;quot;:1}&quot;&gt;1&lt;/td&gt;&lt;td style=&quot;border: 1px solid rgb(204, 204, 204); overflow: hidden; padding: 2px 3px; vertical-align: bottom; background-color: rgb(0, 0, 0);&quot;&gt;&lt;/td&gt;&lt;td style=&quot;border: 1px solid rgb(204, 204, 204); overflow: hidden; padding: 2px 3px; vertical-align: bottom; text-align: center;&quot; data-sheets-value=&quot;{&amp;quot;1&amp;quot;:3,&amp;quot;3&amp;quot;:1}&quot;&gt;1&lt;/td&gt;&lt;td style=&quot;border: 1px solid rgb(204, 204, 204); overflow: hidden; padding: 2px 3px; vertical-align: bottom; text-align: center;&quot; data-sheets-value=&quot;{&amp;quot;1&amp;quot;:3,&amp;quot;3&amp;quot;:1}&quot;&gt;1&lt;/td&gt;&lt;td style=&quot;border: 1px solid rgb(204, 204, 204); overflow: hidden; padding: 2px 3px; vertical-align: bottom; text-align: center;&quot; data-sheets-value=&quot;{&amp;quot;1&amp;quot;:3,&amp;quot;3&amp;quot;:0}&quot;&gt;0&lt;/td&gt;&lt;/tr&gt;&lt;/tbody&gt;&lt;/table&gt;" style="text;strokeColor=none;align=center;fillColor=none;html=1;verticalAlign=middle;whiteSpace=wrap;rounded=0;fontFamily=Helvetica;fontSize=11;fontColor=default;" parent="1" vertex="1">
                    <mxGeometry x="1460" y="335" width="60" height="30" as="geometry"/>
                </mxCell>
                <mxCell id="213" value="TEJ3M-4-19&lt;br&gt;Jakub Malhotra&lt;br&gt;Dec 2023&lt;br&gt;2-bit Adder" style="text;strokeColor=none;align=left;fillColor=none;html=1;verticalAlign=middle;whiteSpace=wrap;rounded=0;fontFamily=Helvetica;fontSize=11;fontColor=default;" parent="1" vertex="1">
                    <mxGeometry x="705" y="75" width="130" height="30" as="geometry"/>
                </mxCell>
            </root>
        </mxGraphModel>
    </diagram>
</mxfile>